# xmcd CD database file
#
# Track frame offsets:
#	150
#	12898
#	28291
#	41961
#	55881
#	71084
#	86425
#	99362
#	114683
#	128500
#	159841
#	182264
#
# Disc length: 2669 seconds
#
# Revision: 0
# Processed by: cddbd v1.5.2PL0 Copyright (c) Steve Scherf et al.
# Submitted via: CDex 1.70beta2
#
DISCID=930a6b0c
DTITLE=Andy Borg - Komm ein bisschen mit
DYEAR=2011
DGENRE=Schlager
TTITLE0=Keep On Smiling
TTITLE1=Komm ein bisschen mit and Bella Donna
TTITLE2=Blue Bayou
TTITLE3=Moderne Romanzen
TTITLE4=Sag mir Quando
TTITLE5=Please Release me
TTITLE6=Buona Sera Signorina
TTITLE7=Blue Spanish Eyes
TTITLE8=Green Green Gras Of Home
TTITLE9=Schlager-Oldie-Medley
TTITLE10=Anneliese and Michaela
TTITLE11=California Blue
EXTD=YEAR: 2011
EXTT0=
EXTT1=
EXTT2=
EXTT3=
EXTT4=
EXTT5=
EXTT6=
EXTT7=
EXTT8=
EXTT9=
EXTT10=
EXTT11=
PLAYORDER=
